#!OML:ASF E:\emotionWalksFemale\Project 1\Capture day 1\Session 1\Female1.ASF
:FULLY-SPECIFIED
:DEGREES
1597
root 8.63446 14.6857 33.2651 173.593 -178.361 -184.341
lowerback 2.96777 4.04739 7.36645
upperback -4.24848 6.07124 4.28318
thorax -5.82955 2.78099 -0.0914208
lowerneck -6.60125 -5.44369 -5.44408
upperneck 33.7684 -6.23469 -2.02878
head 12.3707 -3.68914 -0.58575
rclavicle -1.35174e-014 -9.54166e-015
rhumerus 10.4826 27.4407 -62.9777
rradius 43.5515
rwrist 32.9554
rhand -34.9099 305.072
rfingers 7.12502
rthumb -8.05782 -804.755
lclavicle -1.35174e-014 -9.54166e-015
lhumerus -50.3479 -12.134 29.4009
lradius 40.9629
lwrist -13.451
lhand 18.3444 -36.4581
lfingers 7.12502
lthumb 42.9898 -12.2086
rfemur 24.2119 6.28864 34.7052
rtibia 12.6905
rfoot -19.9843 -22.7959
rtoes -15.8101
lfemur -29.5604 -32.1584 -4.80932
ltibia 24.2943
lfoot -22.5911 23.1975
ltoes -27.0534
1598
root 8.65133 14.6459 33.439 173.51 -177.907 -184.843
lowerback 3.11424 4.1376 7.85844
upperback -4.39517 6.24977 4.29857
thorax -6.01757 2.8371 -0.368813
lowerneck -6.42233 -5.46208 -5.68701
upperneck 33.4521 -6.37465 -1.58169
head 12.2333 -3.72863 -0.380129
rclavicle 3.1408e-014 8.74653e-015
rhumerus 10.2207 26.2521 -63.5746
rradius 43.3374
rwrist 33.8454
rhand -36.1173 300.476
rfingers 7.12502
rthumb -9.22303 -809.302
lclavicle 3.1408e-014 8.74653e-015
lhumerus -49.7761 -12.8444 28.2531
lradius 40.6161
lwrist -13.9843
lhand 17.6609 -36.3751
lfingers 7.12502
lthumb 42.3501 -11.9035
rfemur 24.7973 5.81695 34.9214
rtibia 13.0635
rfoot -19.7882 -21.8536
rtoes -17.172
lfemur -28.6716 -31.3778 -5.00251
ltibia 24.3436
lfoot -21.637 21.5318
ltoes -30.3487
1599
root 8.66844 14.6167 33.6286 173.341 -177.306 -185.002
lowerback 3.10328 4.27838 8.04448
upperback -4.45923 6.44783 4.23491
thorax -6.04275 2.92179 -0.54884
lowerneck -6.6431 -5.51328 -5.42783
upperneck 33.9245 -6.26054 -2.28477
head 12.4358 -3.73595 -0.695833
rclavicle 2.50469e-014 -2.3059e-014
rhumerus 9.82961 25.3519 -64.0051
rradius 42.9821
rwrist 34.5222
rhand -37.5096 296.719
rfingers 7.12502
rthumb -10.5662 -987.005
lclavicle 2.50469e-014 -2.3059e-014
lhumerus -49.3634 -13.3243 27.2108
lradius 40.3079
lwrist -14.1201
lhand 17.0875 -36.3124
lfingers 7.12502
lthumb 41.8128 -11.66
rfemur 25.7847 5.56573 34.7899
rtibia 13.028
rfoot -19.0776 -20.811
rtoes -19.16
lfemur -27.5086 -30.8458 -5.60593
ltibia 24.7023
lfoot -20.7342 19.9171
ltoes -32.8369
1600
root 8.68339 14.5938 33.8157 173.324 -176.827 -184.994
lowerback 2.93622 4.43788 7.94001
upperback -4.58201 6.64004 4.15369
thorax -6.06672 3.01658 -0.579189
lowerneck -6.39556 -5.52288 -5.88503
upperneck 33.7677 -6.34087 -1.86283
head 12.36 -3.77873 -0.457251
rclavicle -1.25234e-014 -1.43125e-014
rhumerus 9.09678 24.7803 -64.14
rradius 42.7367
rwrist 35.0329
rhand -38.4447 293.343
rfingers 7.12502
rthumb -11.4681 -983.676
lclavicle -1.25234e-014 -1.43125e-014
lhumerus -48.9552 -13.558 26.296
lradius 40.0854
lwrist -14.0477
lhand 16.7893 -35.7029
lfingers 7.12502
lthumb 41.5332 -10.9583
rfemur 26.7696 5.45219 34.4757
rtibia 12.5516
rfoot -17.7547 -19.991
rtoes -19.4209
lfemur -26.5918 -30.5537 -6.19656
ltibia 25.2088
lfoot -19.8721 17.7098
ltoes -31.6381
1601
root 8.70076 14.5994 34.0043 173.33 -176.485 -184.912
lowerback 2.78184 4.55151 7.83311
upperback -4.71106 6.76782 3.97713
thorax -6.09662 3.07678 -0.703832
lowerneck -6.27151 -5.47945 -6.35056
upperneck 33.7396 -6.40355 -1.22669
head 12.3716 -3.78876 -0.142058
rclavicle -8.48811e-014 -3.02153e-014
rhumerus 7.71214 23.8353 -64.6369
rradius 43.0728
rwrist 35.9973
rhand -38.2896 290.948
rfingers 7.12502
rthumb -11.3186 -981.274
lclavicle -8.48811e-014 -3.02153e-014
lhumerus -48.6187 -13.5672 25.3725
lradius 39.94
lwrist -14.0266
lhand 15.4615 -35.3495
lfingers 7.12502
lthumb 40.2859 -10.2103
rfemur 27.6282 5.12324 33.9139
rtibia 12.178
rfoot -16.3834 -18.8674
rtoes -18.5597
lfemur -26.3505 -31.5461 -6.28612
ltibia 25.6596
lfoot -17.8972 16.7808
ltoes -32.1736
1602
root 8.7237 14.6111 34.1946 173.169 -176.05 -184.924
lowerback 2.80031 4.62446 7.94799
upperback -4.77555 6.86839 3.808
thorax -6.13613 3.11294 -0.950561
lowerneck -6.59493 -5.43973 -6.40958
upperneck 34.2958 -6.31458 -1.22461
head 12.675 -3.76057 -0.14421
rclavicle 3.91606e-014 -3.97569e-015
rhumerus 6.29693 23.2075 -65.3722
rradius 42.7297
rwrist 36.025
rhand -38.8224 290.886
rfingers 7.12502
rthumb -11.8324 -981.24
lclavicle 3.91606e-014 -3.97569e-015
lhumerus -48.3714 -13.046 24.3959
lradius 39.5166
lwrist -14.3134
lhand 13.0804 -35.4813
lfingers 7.12502
lthumb 38.0418 -9.69348
rfemur 28.5718 4.7855 33.3767
rtibia 11.9367
rfoot -15.2787 -17.4933
rtoes -19.2432
lfemur -25.9461 -32.2923 -6.44553
ltibia 26.067
lfoot -15.5083 17.8876
ltoes -33.4794
1603
root 8.74923 14.6344 34.3758 173.168 -175.73 -184.616
lowerback 2.76245 4.69004 7.79354
upperback -4.95314 6.93972 3.50849
thorax -6.27694 3.13849 -1.18589
lowerneck -6.49142 -5.38376 -6.60574
upperneck 34.5802 -6.26137 -1.05058
head 12.79 -3.74526 -0.0407959
rclavicle 6.04305e-014 3.97569e-016
rhumerus 4.56513 22.2396 -66.4606
rradius 42.0695
rwrist 36.8454
rhand -38.4406 291.588
rfingers 7.12502
rthumb -11.4642 -981.922
lclavicle 6.04305e-014 3.97569e-016
lhumerus -48.1821 -12.1984 23.4951
lradius 38.9168
lwrist -14.7054
lhand 10.2524 -35.5008
lfingers 7.12502
lthumb 35.3657 -9.03095
rfemur 29.1632 4.47638 32.442
rtibia 11.9943
rfoot -14.1 -16.1345
rtoes -20.9755
lfemur -25.4256 -31.8671 -7.28964
ltibia 26.3471
lfoot -12.2852 18.3581
ltoes -32.5457
1604
root 8.77528 14.6698 34.5716 172.989 -175.337 -184.029
lowerback 2.54707 4.81959 7.48919
upperback -4.99959 7.0496 3.09527
thorax -6.17209 3.19988 -1.43754
lowerneck -6.31919 -5.34878 -6.89109
upperneck 34.9061 -6.26337 -0.768219
head 12.9199 -3.75352 0.114311
rclavicle -4.49253e-014 -3.77691e-014
rhumerus 2.5946 21.2048 -67.6559
rradius 41.2815
rwrist 37.3892
rhand -37.5183 291.692
rfingers 7.12502
rthumb -10.5746 -981.978
lclavicle -4.49253e-014 -3.77691e-014
lhumerus -47.8996 -11.1281 22.6703
lradius 38.1786
lwrist -15.2391
lhand 6.9673 -35.4998
lfingers 7.12502
lthumb 32.2446 -8.34317
rfemur 29.3555 4.30494 31.2518
rtibia 13.3365
rfoot -13.3933 -14.7987
rtoes -21.5426
lfemur -24.1525 -30.9175 -8.78196
ltibia 26.2668
lfoot -8.46847 18.454
ltoes -27.5814
1605
root 8.79904 14.7137 34.7809 172.727 -174.996 -182.786
lowerback 2.00177 4.99661 6.54176
upperback -4.91048 7.13926 2.48469
thorax -5.77847 3.29151 -1.50483
lowerneck -6.63992 -5.27201 -6.84028
upperneck 35.545 -6.1893 -0.617476
head 13.2676 -3.69974 0.151102
rclavicle -3.02153e-014 -2.78299e-014
rhumerus 0.448843 20.033 -68.7654
rradius 40.0122
rwrist 38.5476
rhand -37.3713 293.429
rfingers 7.12502
rthumb -10.4328 -983.708
lclavicle -3.02153e-014 -2.78299e-014
lhumerus -47.5825 -9.77526 21.9086
lradius 37.3768
lwrist -15.9328
lhand 3.15883 -35.8443
lfingers 7.12502
lthumb 28.6123 -8.01458
rfemur 29.0448 4.26316 29.3289
rtibia 15.8161
rfoot -13.0049 -13.4059
rtoes -21.8874
lfemur -22.5805 -30.3901 -10.9236
ltibia 25.8306
lfoot -5.16753 19.0074
ltoes -17.5207
1606
root 8.80556 14.7465 34.9634 172.246 -174.448 -181.385
lowerback 2.03711 5.26801 5.18125
upperback -4.84751 7.40253 1.88321
thorax -5.78944 3.47123 -1.40473
lowerneck -6.72085 -5.22318 -6.94298
upperneck 35.89 -6.23913 -0.188774
head 13.461 -3.68446 0.321329
rclavicle -4.68138e-014 -1.35174e-014
rhumerus -1.87784 19.1718 -69.7123
rradius 38.7544
rwrist 38.8355
rhand -37.0414 294.816
rfingers 7.12502
rthumb -10.1146 -985.079
lclavicle -4.68138e-014 -1.35174e-014
lhumerus -47.5378 -8.47493 21.3789
lradius 37.0107
lwrist -16.4491
lhand -0.702157 -36.4849
lfingers 7.12502
lthumb 24.9177 -8.08927
rfemur 28.4684 4.4728 27.372
rtibia 18.8928
rfoot -12.1704 -11.9809
rtoes -22.6097
lfemur -20.7591 -29.1826 -13.218
ltibia 25.2349
lfoot -3.61276 19.2555
ltoes -19.6317
1607
root 8.8154 14.7807 35.127 172.067 -174.095 -180.61
lowerback 2.0402 5.45412 4.49022
upperback -4.85198 7.59118 1.38301
thorax -5.79963 3.58411 -1.55619
lowerneck -6.81473 -5.17412 -7.05402
upperneck 35.907 -6.3443 0.412189
head 13.5205 -3.67023 0.560046
rclavicle 1.3418e-014 9.54166e-015
rhumerus -4.05109 18.3354 -70.543
rradius 37.3154
rwrist 39.1369
rhand -36.031 296.742
rfingers 7.12502
rthumb -9.13968 -986.96
lclavicle 1.3418e-014 9.54166e-015
lhumerus -47.7597 -7.13183 21.1709
lradius 36.847
lwrist -17.5206
lhand -5.71232 -36.7793
lfingers 7.12502
lthumb 20.1089 -7.8
rfemur 27.1342 4.38485 25.9593
rtibia 22.464
rfoot -11.2301 -10.4844
rtoes -22.6292
lfemur -19.4632 -27.1069 -14.7261
ltibia 24.5267
lfoot -1.59565 19.495
ltoes -32.0269
1608
root 8.83091 14.8184 35.2886 171.951 -173.585 -180.193
lowerback 1.9648 5.63825 4.26132
upperback -4.79172 7.79719 0.982454
thorax -5.65346 3.69202 -1.84101
lowerneck -6.94607 -5.1279 -7.12671
upperneck 35.7622 -6.43427 0.946735
head 13.5111 -3.65163 0.769188
rclavicle -7.89672e-014 -1.42131e-014
rhumerus -6.15775 17.3758 -71.3392
rradius 35.8476
rwrist 39.5783
rhand -34.8674 301.184
rfingers 7.12502
rthumb -8.01681 -808.644
lclavicle -7.89672e-014 -1.42131e-014
lhumerus -47.9793 -5.36819 20.9766
lradius 36.4507
lwrist -18.6589
lhand -10.1302 -37.2117
lfingers 7.12502
lthumb 15.8582 -7.84108
rfemur 25.5553 4.33675 24.83
rtibia 26.2759
rfoot -10.5201 -8.96075
rtoes -21.777
lfemur -18.2324 -25.2257 -15.8017
ltibia 23.9192
lfoot -1.27986 17.4336
ltoes -31.9031
1609
root 8.84822 14.858 35.4414 171.923 -173.053 -179.944
lowerback 1.96805 5.84365 4.18041
upperback -4.82379 8.05119 0.638335
thorax -5.63544 3.81341 -2.16373
lowerneck -6.96427 -5.09874 -7.13842
upperneck 35.6085 -6.52924 1.36554
head 13.4668 -3.64272 0.924502
rclavicle -4.1428e-014 -2.06239e-015
rhumerus -8.52851 16.1162 -72.1121
rradius 34.3979
rwrist 40.1137
rhand -32.7431 302.001
rfingers 7.12502
rthumb -5.96622 -807.895
lclavicle -4.1428e-014 -2.06239e-015
lhumerus -48.2977 -3.74338 21.0459
lradius 36.0653
lwrist -19.6378
lhand -14.2475 -37.9557
lfingers 7.12502
lthumb 11.8905 -8.31335
rfemur 23.8422 4.35622 23.9072
rtibia 30.067
rfoot -9.57947 -7.63366
rtoes -20.9577
lfemur -17.2055 -23.9103 -16.5569
ltibia 23.6
lfoot -1.63858 16.5635
ltoes -32.8297
1610
root 8.8657 14.8975 35.5849 171.893 -172.637 -179.962
lowerback 2.1058 5.99196 4.35105
upperback -4.87779 8.25356 0.363192
thorax -5.69517 3.89636 -2.56532
lowerneck -6.98242 -5.07642 -7.27567
upperneck 35.4615 -6.65354 1.91624
head 13.4398 -3.64696 1.14883
rclavicle -6.06293e-015 5.71506e-015
rhumerus -10.8829 14.8789 -72.7933
rradius 32.8386
rwrist 40.6493
rhand -31.1699 303.257
rfingers 7.12502
rthumb -4.44716 -806.677
lclavicle -6.06293e-015 5.71506e-015
lhumerus -48.8213 -2.32574 21.4238
lradius 35.9623
lwrist -20.0758
lhand -17.6011 -38.8001
lfingers 7.12502
lthumb 8.6553 -8.99752
rfemur 22.057 4.23724 23.3083
rtibia 33.8546
rfoot -8.16612 -6.45799
rtoes -20.8659
lfemur -16.3264 -22.8461 -16.9487
ltibia 23.469
lfoot -2.205 16.0528
ltoes -34.4349
1611
root 8.88197 14.9336 35.7222 171.779 -172.306 -179.898
lowerback 2.35801 6.06485 4.33815
upperback -4.8758 8.35324 0.138939
thorax -5.79805 3.93702 -2.82275
lowerneck -6.8692 -5.02851 -7.54262
upperneck 35.1604 -6.70879 2.4434
head 13.3188 -3.64244 1.39912
rclavicle 8.10544e-014 1.75924e-014
rhumerus -13.0567 13.732 -73.3381
rradius 31.1361
rwrist 41.4799
rhand -29.6993 303.985
rfingers 7.12502
rthumb -3.02707 -805.974
lclavicle 8.10544e-014 1.75924e-014
lhumerus -49.6225 -0.944997 22.1144
lradius 36.0038
lwrist -19.8417
lhand -20.1518 -39.5621
lfingers 7.12502
lthumb 6.19328 -9.67266
rfemur 20.2749 3.97885 22.597
rtibia 37.6686
rfoot -7.63427 -5.97362
rtoes -23.8079
lfemur -15.4458 -21.8881 -17.416
ltibia 23.3457
lfoot -2.6483 15.4202
ltoes -35.7512
